<?xml version="1.0" encoding="UTF-8"?>
<svg xmlns="http://www.w3.org/2000/svg" xmlns:xlink="http://www.w3.org/1999/xlink" width="15pt" height="15pt" viewBox="0 0 15 15" version="1.1">
<g id="surface1">
<path style=" stroke:none;fill-rule:nonzero;fill:rgb(0%,0%,0%);fill-opacity:1;" d="M 14.796875 12.96875 L 11.875 10.046875 C 11.742188 9.917969 11.5625 9.84375 11.375 9.84375 L 10.898438 9.84375 C 11.707031 8.808594 12.1875 7.507812 12.1875 6.09375 C 12.1875 2.726562 9.460938 0 6.09375 0 C 2.726562 0 0 2.726562 0 6.09375 C 0 9.460938 2.726562 12.1875 6.09375 12.1875 C 7.507812 12.1875 8.808594 11.707031 9.84375 10.898438 L 9.84375 11.375 C 9.84375 11.5625 9.917969 11.742188 10.046875 11.875 L 12.96875 14.796875 C 13.246094 15.070312 13.691406 15.070312 13.960938 14.796875 L 14.792969 13.964844 C 15.066406 13.691406 15.066406 13.246094 14.796875 12.96875 Z M 6.09375 9.84375 C 4.023438 9.84375 2.34375 8.167969 2.34375 6.09375 C 2.34375 4.023438 4.019531 2.34375 6.09375 2.34375 C 8.164062 2.34375 9.84375 4.019531 9.84375 6.09375 C 9.84375 8.164062 8.167969 9.84375 6.09375 9.84375 Z M 6.09375 9.84375 "/>
</g>
</svg>
